<svg xmlns="http://www.w3.org/2000/svg" width="24" height="24" viewBox="0 0 24 24" fill="none">
  <g clip-path="url(#clip0_199_4314)">
    <path d="M12 21.75V18.75" stroke="#6AFFDB" stroke-width="2" stroke-linecap="square" stroke-linejoin="bevel"/>
    <path d="M12 20.25C16.5563 20.25 20.25 16.5563 20.25 12C20.25 7.44365 16.5563 3.75 12 3.75C7.44365 3.75 3.75 7.44365 3.75 12C3.75 16.5563 7.44365 20.25 12 20.25Z" stroke="#6AFFDB" stroke-width="2" stroke-linecap="round" stroke-linejoin="round"/>
    <path d="M12 2.25V5.25" stroke="#6AFFDB" stroke-width="2" stroke-linecap="square" stroke-linejoin="bevel"/>
    <path d="M2.25 12H5.25" stroke="#6AFFDB" stroke-width="2" stroke-linecap="square" stroke-linejoin="bevel"/>
    <path d="M21.75 12H18.75" stroke="#6AFFDB" stroke-width="2" stroke-linecap="square" stroke-linejoin="bevel"/>
    <path d="M12 15C13.6569 15 15 13.6569 15 12C15 10.3431 13.6569 9 12 9C10.3431 9 9 10.3431 9 12C9 13.6569 10.3431 15 12 15Z" fill="#6AFFDB"/>
  </g>
  <defs>
    <clipPath id="clip0_199_4314">
      <rect width="24" height="24" fill="white"/>
    </clipPath>
  </defs>
</svg>